<?xml version="1.0" encoding="UTF-8"?>
<svg id="Layer_1" data-name="Layer 1" xmlns="http://www.w3.org/2000/svg" viewBox="0 0 688.01 639.58">
  <defs>
    <style>
      .cls-1 {
        stroke-width: .75px;
      }

      .cls-1, .cls-2 {
        stroke: #000;
      }

      .cls-1, .cls-2, .cls-3 {
        stroke-miterlimit: 10;
      }

      .cls-2 {
        stroke-width: .25px;
      }

      .cls-3 {
        fill: none;
        stroke: #666;
      }
    </style>
  </defs>
  <rect class="cls-3" x=".5" y=".5" width="687.01" height="638.58"/>
  <path d="m437.3,443.65c-.85.4-1.2.57-1.76.83,5.5,1.72,11.2,2.19,16.24,5.2-.37.4-.66.71-.91.99,1.21.69,2.34,1.55,3.62,2.01,1.1.4,2.36.36,3.55.52-.01.22-.03.45-.04.67-.77.08-1.54.16-2.55.26,1.27.72,2.37,1.35,3.47,1.98-.06.16-.12.32-.17.47-.52-.11-1.07-.16-1.56-.35-3.05-1.18-6.11-2.36-9.13-3.62-1.5-.62-2.29.1-2.98,1.26-.77,1.3.26,1.79,1.05,2.37,2.19,1.61,4.41,3.18,6.58,4.82.38.29.58.82.86,1.24-.44.05-.89.09-1.33.16-.41.07-.9.06-1.21.28-2.61,1.84-10.23,1.32-13.12-1.27-.06-.06-.05-.2-.16-.72.78.23,1.42.34,1.98.61,2.42,1.16,4.93,1.45,8,.95-.65-.36-.93-.58-1.24-.67-2.19-.63-4.38-1.24-6.58-1.84-1.67-.45-3.53.76-3.54,2.44,0,.39.75.94,1.26,1.15,3.55,1.42,7.14,2.76,10.7,4.16.54.21,1.02.59,1.43,1.18-3.42-.1-6.56-1.51-9.88-1.98,4.47,1.64,8.94,3.27,13.41,4.91-.05.2-.1.4-.15.61-1.1-.09-2.2-.17-3.3-.26-.03.18-.06.36-.1.54,1.46.29,2.92.59,4.37.88.02.16.04.32.06.49-.55.1-1.14.37-1.65.27-2.92-.62-5.89-1.12-8.72-2.05-5.35-1.75-10.82-2.82-16.36-3.74-6.17-1.02-12.26-2.62-18.38-3.96-.38-.08-.78-.22-1.15-.16-2.73.44-5.06-.49-7.62-1.42-2.19-.8-5.01.17-7.56.32-.73.04-1.64.22-2.16-.12-2.16-1.44-4.31-2.94-6.26-4.65-1.43-1.25-2.61-2.03-4.46-.76-1.07.74-2.4,1.15-3.67,1.53-.7.21-1.59.28-2.25.04-4.9-1.77-9.78-3.6-14.64-5.48-1.5-.58-2.93-1.32-4.35-2.08-1.19-.64-2.27-.74-3.41.11-.57.43-1.27.69-1.9,1.03-.97.52-1.85.37-2.54-.46-3.04-3.6-6.83-6.14-11.21-7.82-.25-.1-.53-.25-.68-.46-1.82-2.41-4.28-3.94-6.98-5.19-1.76-.82-3.04-2.06-2.95-4.15h-2.85c-.15.29-.39.75-.71,1.36-.96-1.21-1.81-.67-2.7,0-.75.57-1.64.97-2.35,1.57-1.59,1.34-3.21,1.43-5.04.5-.97-.49-1.24-1.02-.7-1.96.43-.74.85-1.49,1.03-2.58-.54.16-1.08.29-1.61.47-1.33.45-2.17.01-2.49-1.36-.31-1.34-.58-2.68-.9-4.21-1.05.29-1.93.55-2.83.78-.82.21-1.12-.09-1.55-.93-1.32-2.58-.16-4.49,1.18-6.54,1.09-1.67,1.86-3.53,2.91-5.22.4-.64,1.16-1.1,1.83-1.53,1.71-1.09,3.46-2.1,5.19-3.16,1.68-1.03,3.32-2.13,5.02-3.13.9-.53,1.88-.93,3.08-1.51-.65-.66-1.15-1.2-1.68-1.71-1.98-1.93-1.34-5.7,1.12-6.94,3.08-1.55,6.18-.98,9.19.03,1.92.65,3.19,2.07,3.47,4.28.42,3.28,2.65,5.22,5.32,6.81.48.29.86.77,1.22,1.23.97,1.25,1.82,2.61,2.89,3.75.45.47,1.37.74,2.06.69,2.49-.16,4.97-.51,7.45-.75.73-.07,1.47-.01,2.44-.01-.38.45-.58.69-.79.93,3.08.86,5.75-.67,8.49-1.76.2.3.41.6.61.91l-1.95.45c.15.16.29.32.44.48.15.02.32.08.46.06,4.39-.71,4.88-.11,3.07-5-2.34-6.35-4.45-12.78-6.64-19.18-.5-1.45-.98-2.77-2.88-3.02-.52-.07-1.23-1.14-1.32-1.82-.47-3.79-.77-7.6-1.13-11.41-.03-.31,0-.63-.23-.99-.23.56-.46,1.13-.69,1.69-.15,0-.3,0-.45-.01,0-.89-.27-1.9.05-2.66,1.33-3.23,2.7-6.45,4.31-9.55,1.77-3.42,5.46-4.76,8.23-7.11.98-.84,1.69-2,2.53-3.01-.12-.14-.24-.29-.36-.43-8.58.51-17.17,1.02-25.75,1.53-.11.15-.22.3-.33.45,1.15,1.58,2.24,3.21,3.46,4.74,2.04,2.56,4.18,5.04,6.22,7.6.37.46.46,1.15.68,1.73-.62-.02-1.24-.02-1.86-.05-.32-.02-.64-.09-.96-.13-.5,2.59-.48,2.52-2.99,1.77-7.02-2.1-13.5-5.36-19.84-8.95-2.17-1.23-4.29-2.54-6.48-3.73-.6-.33-1.35-.49-2.04-.52-2-.1-4.02.06-5.99-.18-3.18-.39-6.32-1.01-9.48-1.54-2.78-.47-5.56-.95-8.35-1.41-.6-.1-1.24-.04-1.81-.22-7.33-2.26-13.93-5.5-18.77-11.89-2-2.65-3.49-5.47-4.43-8.47-.66-2.09-.11-4.59,0-6.9.04-.87.42-1.73.5-2.6.78-8.06,5.05-14.34,10.53-19.85,1.65-1.66,4.07-2.71,6.31-3.61,5.82-2.33,11.65-4.68,17.63-6.54,7.96-2.47,16.11-4.18,24.47-4.68,3.71-.22,7.4-.74,11.11-.89,5.38-.21,10.77-.18,16.15-.31,6.44-.16,12.87-.45,19.31-.54,7.8-.12,15.61-.49,23.32,1.54,2.68.7,5.63.32,8.45.53,6.7.49,13.39,1.09,20.09,1.54,2.31.15,4.65-.12,6.98-.04,2.99.11,6,.17,8.94.64,5.97.94,12.01,1.72,17.8,3.34,5.18,1.45,10.02,4.05,13.23,8.74,2.48,3.62,2.92,7.89,3.42,12.05.32,2.71.25,5.57-.24,8.26-1.09,6.04-4.26,10.88-9.05,14.83-6.05,4.99-13.26,6.59-20.67,7.46-9.59,1.12-19.22,1.88-28.85,2.63-4.98.39-9.99.41-14.98.65-3.38.16-6.75.44-10.13.63-.88.05-1.76-.08-2.65-.11-.65-.02-1.43-.22-1.94.05-.85.47-1.53,1.25-2.28,1.9.73.37,1.44.81,2.2,1.1,1.6.62,3.24,1.15,4.86,1.73,1.99.72,3.74,1.7,4.29,3.98.02.1.1.21.18.28,2.44,2.23,2.16,5.12,2.05,8.02-.25,6.62-.19,13.23,1.28,19.73.76,3.35,1.88,6.61,2.87,9.91.1.34.42.77.72.86,1.78.51,1.07,1.69.9,2.81-.11.74-.24,1.68.12,2.21.25.36,1.32.25,2.01.21,1.71-.11,2.57,1.17,3.41,2.23.26.33-.18,1.51-.61,2.04-2.65,3.2-3.62,6.56-1.71,10.55.84,1.76,1.69,3.59,1.18,5.75-.18.75.35,1.71.65,2.54.39,1.07,1.2,2.05.48,3.28-.05.08-.05.25,0,.32,1.47,2.14,1.62,5.34,4.88,6.05.47.1.95.35,1.35.64,3.84,2.77,8.28,3.88,12.82,4.74,1.91.36,3.8.8,5.69,1.25.51.12.97.41,1.93.83Zm-53.05-23.14c5.57,1.68,11.15,3.35,16.72,5.03l.18-.64c-5.27-2.8-11.15-3.39-16.92-4.36-.28-.7-.57-1.4-1.02-2.52-.56.64-1.05,1.02-1.31,1.52-1.18,2.27-1.46,2.4-3.88,1.4-1.39-.57-2.65-1.07-4.19.01-1.26.88-3.7-.17-4.46-1.54q-3.41,2-3.65-1.04c-1.82-.12-3.65-.19-5.46-.36-2.64-.25-5.27-.79-7.91-.8-3.13-.01-6.29.21-9.38.7-3.46.56-6.81,1.5-8.22,5.44-.31.88-1.32,1.67-2.2,2.14-1.4.76-2.97,1.2-4.46,1.82-.73.31-1.42.71-2.13,1.07.04.16.08.31.13.47h2.2c-.5,1.85-.96,3.56-1.4,5.19.82.45,1.5.71,2.05,1.14,4.29,3.34,8.54,6.74,12.83,10.07,1.13.87,2.1,2.23,3.92,1.54.26-.1.78.34,1.12.61.74.58,1.42,1.25,2.18,1.8.9.65,1.8.71,2.73-.08.92-.79,1.9-1.51,2.92-2.17,2.93-1.88,5.42-4.18,7.26-7.15.45-.73.67-1.53-.28-2.17-2.17-1.48-4.34-2.96-6.46-4.51-.41-.3-.63-.88-.93-1.33.59,0,1.22-.11,1.77.05.72.21,1.38.65,2.08.95.75.32,1.53.56,2.27.89,1.84.83,2.95,3.23,5.22,2.52.36.64.64,1.13.91,1.62.17.32.49.65.48.96-.05,1.31.32,1.95,1.75,1.45.22-.08.55.03.78.15,2.11,1.11,4.26,2.15,6.28,3.39.94.58,1.56.64,2.53.08,1.91-1.1,3.9-2.08,5.92-2.95,1.55-.67,3.27-.95,4.81-1.64,1.46-.65,2.81-1.56,4.16-2.44,2.97-1.94,6.02-3.01,9.7-2.1,2.52.63,2.61.33,3.82-2.08-4.09-2.23-8.87-3.01-12.81-5.55.1-.27.21-.54.31-.8,2.09.76,4.17,1.52,6.26,2.28-.16-.3-.4-.42-.62-.56-4.89-2.92-10.46-3.93-15.78-5.67-.74-.24-1.36-.86-2.04-1.31.74-.18,1.49-.35,2.24-.53Zm3.53-75c2.68,0,5.23.14,7.75-.03,6.31-.41,12.6-.97,18.9-1.43,1.99-.15,3.99-.17,5.99-.26,7.53-.34,15.1-.33,22.59-1.11,6.53-.68,13.06-1.72,19.21-4.47,5.61-2.51,9.87-6.06,11.72-12.12,1.66-5.44,1.35-10.83.02-16.27-1.16-4.72-4.1-7.94-8.24-10.13-10.01-5.28-20.99-6.59-31.98-6.62-8.43-.02-16.7-1.25-25.06-1.62-2.15-.09-4.29-.14-6.44-.22-1.61-.06-3.28.12-4.8-.28-4.66-1.24-9.39-1.62-14.18-1.52-1.29.03-2.64-.41-3.78.7-.23.22-.84.08-1.28.05-2.04-.13-4.09-.41-6.13-.4-14.93.08-29.89-.21-44.76,1.5-7.2.83-14.43,1.96-21.43,3.78-6.3,1.64-12.27,4.49-18.45,6.65-6.93,2.42-11.33,7.33-14.25,13.82-.48,1.06-1.03,2.09-1.51,3.14-1.76,3.8-2.97,7.68-1.38,11.86.43,1.13,1.16,2.15,1.58,3.28,1.01,2.76,2.86,4.93,5.09,6.65,5.5,4.23,12.01,6.45,18.48,8.55,7.18,2.33,14.62,3.15,22.19,2.42,2.33-.23,4.19.48,6.23,1.93,5.83,4.12,11.95,7.86,18.06,11.57,1.68,1.02,3.74,1.42,5.63,2.11,0-.58-.18-.85-.38-1.1-4.12-4.87-8.24-9.73-12.36-14.59-1.17-1.38-1.06-1.99.65-2.1,4.42-.3,8.85-.61,13.27-.53,5.6.11,11.19.44,16.75-.94-.45-.13-.86-.26-1.51-.45.9-1.08,1.63-1.94,2.34-2.82.62-.77,1.08-1.77,1.86-2.29,2.04-1.38,4.2-2.62,6.37-3.78.5-.27,1.27-.02,1.92-.02,1.22,0,2.44-.03,3.66-.03.8,0,1.89-.31,2.34.09,2.18,1.94,5.59,2.96,5.3,7.02Zm-21.04,29.46l.96-.32c.3.47.67.9.89,1.41.81,1.89,1.62,3.77,2.29,5.71.17.5-.13,1.16-.23,1.75-.12.76-.47,1.57-.33,2.29.95,4.79,2,9.56,3.01,14.33.45,2.14.86,4.29,1.29,6.43.19.06.39.12.58.18.68-1.21,1.45-2.38,2.03-3.64.62-1.35,1.11-2.78,1.55-4.2.83-2.63,1.83-5.24,2.3-7.94.53-3.1,1.18-6.08,2.83-8.79.18-.3.33-.71.28-1.04-.09-.61-.35-1.19-.63-2.08-.13-.18-.91-.85-.79-1.17.71-1.91,1.62-3.75,2.53-5.58.12-.23.62-.27,1.33-.56-.33,1.73-.59,3.1-.86,4.49,2.18.55,4.24,1.09,6.32,1.6,1.11.27,3.89-1.19,3.98-2.2.34-3.86.66-7.73.8-11.6.03-.9-.39-2.23-1.06-2.66-3.28-2.13-6.72-4.03-10.11-6-.05-.03-.19.09-.17.08-1.44,3.35-2.79,6.53-6.65,7.78-3.85,1.25-7.17,1.05-9.66-2.58-.24.39-.41.68-.85,1.41-.22-1.33-.37-2.17-.51-3.01-.16-.96-.63-1.43-1.61-.95-5.48,2.71-9.96,6.59-10.63,12.89-.5,4.68.32,9.5.59,14.26.07,1.21.83,1.71,1.95,1.31,2.93-1.02,5.86-2.06,8.73-3.24.44-.18.81-1.25.71-1.83-.21-1.24-.9-2.41-1.1-3.65-.15-.92.15-1.91.24-2.87Zm10.65,72.05c.03.16.05.31.08.47-.15-.07-.36-.09-.44-.21-2.38-3.21-6.11-4.06-9.53-5.44-1.46-.59-2.74-.44-3.95.75-1.14,1.12-2.5,2.01-3.76,3.01-1.31,1.04-2.62,2.1-4.07,3.27.53.36.7.49.88.59,5.04,2.66,10.37,4.48,15.97,5.58,2.46.48,4.73.7,6.68-1.23.15-.15.39-.32.57-.3,2.09.24,3.37-1.23,4.8-2.3,3.19-2.4,6.33-4.87,9.49-7.31,1.21-.93,2.5-.9,3.95-.54.75.19,1.79.1,2.42-.3,1.53-.97,1.56-1.04,1.97.75,2.78-.63,5.09-1.92,6.77-4.55-3-1.14-5.84-2.22-8.69-3.27-.34-.12-.8-.12-1.13.02-2.36.98-4.73,1.93-7.02,3.05-.92.45-1.53,1.53-2.45,1.95-3.17,1.45-6.44,2.69-9.62,4.11-1.05.47-1.95,1.25-2.92,1.89Zm1.84-43.48c1.54.83,1.52,1.1-.04,2.19-1.49,1.04-2.96,2.13-4.36,3.3-1.75,1.45-3.41,3-5.11,4.5-1.06.93-2.06,3.81-1.63,5.2.37-.74.59-1.36.95-1.88.28-.4.74-.68,1.12-1.01.18.42.36.84.52,1.27.17.44.31.89.47,1.33.41-.21.81-.44,1.23-.62.58-.24,1.17-.45,1.76-.67.08.16.17.32.25.47.13-.17.26-.34.39-.52,1.2-1.65,1.57-1.64,2.69.11.52.82,1.05,1.63,1.7,2.65.56-2.48-.85-4.81.42-7.27.46.71.73,1.11.95,1.45.9-5.56,3.74-10.31,5.76-15.47.38.19.65.31,1.16.56.24-.99.51-1.91.69-2.85.17-.86.06-1.82.39-2.6,1.61-3.7,3.35-7.35,5-11.03.53-1.17.36-2.32-.99-2.69-1.15-.32-2.4-.23-3.61-.33-.82-.07-1.64-.14-2.81-.25-2.23,7.78-4.57,15.96-6.91,24.16Zm-46.79,20.49c-1.01-1.35.08-2.03.71-2.84.33-.42,1.07-1,.97-1.22-.58-1.27.48-1.81.98-2.59.48-.75,1.12-1.41,1.47-2.2.9-2.02-.66-4.94-2.44-4.67-2.72.42-5.4.46-8.02-.55-.27-.1-.71-.08-.93.09-1.4,1.07-2.88,1.08-4.53.68-.51-.12-1.59.35-1.74.78-.61,1.71-1.13,3.49-1.36,5.29-.41,3.17,2.07,5.92,5.33,6.09,1.34.07,1.53.63.94,1.71-.33.6-.62,1.22-.95,1.88,2.07.88,3.1-.26,4-1.56,1.08.41,1.42.35,5.56-.88Zm36.24-11.83q4.52-3.63,3.83-8.87c-.07-.55-.18-1.1-.29-1.64-1.12-5.37-2.26-10.73-3.34-16.1-.19-.94-.57-1.08-1.37-.74-1.12.48-2.26.91-3.39,1.38-3.98,1.68-4.25,2.32-2.77,6.38.04.1.07.21.11.32,2.01,5.34,4.03,10.69,6.04,16.03.39,1.03.75,2.06,1.19,3.24Zm18.45-9.15c1.15-.42,1.86-.66,2.55-.94,2.66-1.09,5.27-2.33,7.98-3.25,1.35-.46,1.96-.98,1.76-2.42-.45-3.29-.65-6.62-1.31-9.87-.35-1.75-1.44-3.35-2.19-5.02-.17.02-.35.04-.52.06-2.69,6.97-5.37,13.94-8.26,21.44Zm-12.2-40.3c4.89-.68,7.12-1.45,8.01-6.64.2-1.15.04-1.73-1.41-1.62-.92.07-1.89-.49-2.84-.74-.57-.15-1.15-.32-1.74-.39-.34-.04-4.53,1.75-4.89,1.96-.24.14-.49.25-.75.35-1.85.77-2.04,1.35-1.01,3.13.25.43.47.87.67,1.33.78,1.78,2.24,2.48,3.96,2.64Zm-40.41,45.39c-.85-1.65-1.59-2.99-2.24-4.38-1.09-2.35-2.48-4.21-5.44-4-.43.03-.87-.12-1.31-.22-1.73-.38-3.87.59-4.42,2.25-.22.65-.09,1.83.36,2.22,1.32,1.13,2.77,2.32,4.38,2.86,2.15.73,4.5.9,6.77,1.26.57.09,1.17.01,1.89.01Zm66.83,39.88c.18.1.36.21.53.31-.1.54-.29,1.09-.27,1.63.02.38.3,1.08.49,1.08,1.07.04,2.25.25,2.73-1.22.25-.78.65-1.55,1.15-2.2.46-.59,1.14-1.01,1.72-1.5.13.7.25,1.41.38,2.11.02.1.1.19.16.28,1.87.14,2.18-.23,1.58-1.86-.38-1.05.2-1.93,1.32-1.89.49.02.96.24,1.45.31,1.34.21,1.93-.29,1.46-1.5-.6-1.55-1.49-2.99-2.25-4.48-.16-.03-.32-.05-.48-.08-1.34,3.88-4.57,5.29-7.98,6.44-.05.02-.1.05-.15.07-2.8,1.2-3.44,1.98-4.22,5.14.78-.88,1.57-1.77,2.37-2.66Zm-10.28,3.44c.02-.19.04-.38.06-.57.72-.05,1.44-.09,2.16-.17.56-.06,1.38.03,1.62-.3,1.18-1.54,2.2-3.2,3.27-4.81-2.39,1.02-4.61,2.13-6.73,3.41-2.36,1.44-4.62,3.02-6.91,4.57-.75.51-1.16,1.11.17,1.71-.02-1.6.87-1.28,1.7-.79,1.1.64,2.15,1.36,3.21,2.06,1.78,1.17,2.91.78,3.71-1.15.56-1.35.43-2.32-.97-3-.47-.23-.86-.63-1.29-.96Zm32.33-1.18c-.08.23-.16.46-.24.69.94.39,1.86.92,2.84,1.15,3.73.87,7.49,1.56,11.21,2.47,1.4.34,2.57.35,3.74-.77-2.65-2.5-5.04-5.31-9.46-5.6,1,.71,1.69,1.2,2.39,1.69-.09.14-.17.28-.26.42-.63-.25-1.26-.49-1.99-.78.07.41.13.77.26,1.6-2.91-2-5.7-1.5-8.5-.88Zm-9.21,9.85c-3.3-1.29-6.37-2.51-9.45-3.7-2.43-.94-3.53-.53-5.18,1.99,4.66,1.96,9.5,1.72,14.63,1.7Zm25.78,5.84c.04-.16.08-.32.12-.48-.83-.29-1.66-.58-2.49-.86-4.08-1.39-8.17-2.73-12.22-4.21-2.15-.79-4.23-.67-6.34-.32-.02.18-.05.36-.07.53,7,1.78,14.01,3.56,21.01,5.33Zm-61.06-116.22c.7-.7,1.54-1.86,3.25-.64.54.39,1.41.32,2.14.46-.23-1.09-.42-1.97-.69-3.25-.84.3-1.9.44-2.65.99-2.07,1.55-4.18,2.42-6.72,1.24-.08-.04-.21.05-.48.12-.19.73-.4,1.54-.61,2.39,4.47.48,5.44-.5,7.77,1.31-.63-.82-1.26-1.64-2.01-2.61Zm10.68,64.45c-.1-.24-.2-.47-.3-.71-.59.22-1.18.47-1.78.66-1.17.37-3.36-.79-3.09-1.69.51-1.72,1.29-3.37,1.94-5.05.18-.48.31-.98.46-1.47-.25-.1-.51-.2-.76-.29-.74,1.39-2.14,2.83-2.05,4.16.13,1.95-.94,3.06-1.69,4.43-.56,1.02-.71,1.88-.02,2.91,2.48-1.01,4.89-1.98,7.3-2.95Zm2.34-7.19c.09.11.17.22.26.34-.03.11-.08.21-.09.32-.06.7-.19,1.41-.12,2.1.02.15,1.04.4,1.08.32.33-.62.71-1.3.75-1.97.1-1.71.03-3.43.03-5.25-1.79.56-3.81,1.19-5.82,1.82.04.14.09.29.13.43.51-.09,1.02-.18,1.46-.25,1.07.99-1.14,2.54.58,3.3.65-.43,1.19-.79,1.73-1.15Zm10.76.52c1.37.07,2.77,1.53,3.89-.5-1.89-.02-3.84-.08-5.62.42-1.81.5-2.41,2.35-1.85,4.05.33.97.98,1.1,1.82.94.83-.16,1.93.01,1.93-1.31,0-1.14-.1-2.27-.17-3.61Zm5.25,46.07c0,.24,0,.48,0,.72.53.03,1.05.07,1.58.08,1.77.02,3.55-.06,5.32.09.83.07,1.78.37,2.39.9,2.12,1.84,3.79,1.77,5.73-.57-5.02-1.12-10.01-1.25-15.01-1.21Zm18.38,6.27c2.47.77,4.93,1.57,7.42,2.26.3.08,1.04-.34,1.08-.6.07-.44-.13-1.13-.46-1.37-2.48-1.75-5.15-1.97-8.03-.29Zm-13.77-4.16h-5.89c-.02.1-.03.2-.05.29,3.18,1.12,6.36,2.24,9.54,3.37.15-.13.3-.26.44-.4-.25-.9-.23-2.07-.81-2.64-1.36-1.35-1.58,1.25-2.88,1.04-.09-.44-.19-.9-.36-1.66Zm19,1.28c-1.04-.13-2.17-.05-3.1-.44-3.12-1.33-4.47-1.13-6.8,1.39,3.36,1,6.56-.05,9.89-.95Zm-18.1,4.56c6.02,1.6,12.05,3.2,18.07,4.81.04-.17.09-.34.13-.51-6.11-1.3-11.81-4.25-18.2-4.29Zm-14.16-54.96c-.54-.72-.78-1.34-1.22-1.56-.85-.43-1.81-.66-2.74-.92-.07-.02-.38.42-.39.64-.03,1.85-.02,3.71-.02,5.57.19.05.39.09.58.14.5-.44.99-.88,1.37-1.21-.47-.45-1.14-.89-1.07-1.08.26-.76.63-1.57,1.2-2.1.23-.21,1.07.22,2.29.52Zm40.75,49.85c-4.76-1.09-9.19-2.11-13.61-3.12-.05.19-.1.37-.16.56.5.15.99.36,1.5.46,3.1.6,6.21,1.16,9.3,1.78.5.1.96.42,1.44.63-.05.19-.11.37-.16.56-1.5-.23-2.99-.46-4.96-.76,4.19,1.78,4.94,1.79,6.64-.11Zm-16.24-14.04c2.63,2.5,5.22,5.1,9.13,4.5-2.94-1.45-6.03-2.97-9.13-4.5Zm25.39,18.79l.15-.52c-2.85-.89-5.24-3.35-8.58-2.55-.05.17-.1.33-.15.5,2.86.86,5.72,1.71,8.58,2.57Zm-42.44-24.49c1.2.17,2.24.31,3.33.46-.09-.71-.16-1.21-.24-1.85.69.11,1.15.18,1.73.28-1.17-2.17-2.82-2.25-4.82,1.11Zm-21.44-17.77c-.05.21-.11.42-.16.64,2.49.46,4.98.92,7.7,1.43-2.28-2.26-4.86-2.37-7.54-2.06Zm-4.78-74.28c-3.6-2.81-3.41-3.55-4.64-2.01.54.59,1.11,1.06,1.51,1.66.98,1.48,2.01,1.66,3.13.35Zm-65,79.52c-.07.05-.15.1-.22.15.51.82.93,1.74,1.56,2.45,1.03,1.15,2.4,2.03,2.49,3.79,0,.01.2.01.63.04-.1-.97.14-2.17-.35-2.75-1.19-1.38-2.72-2.47-4.11-3.67Zm53.85-70.65c2.25-1.54,2.54-4.41.53-5.75-.18,1.9-.35,3.73-.53,5.75Zm54.78,93.66c.04-.15.07-.31.11-.46-1.9-.7-3.8-1.39-5.7-2.09-.06.18-.12.35-.18.53,1.34,2.33,3.69,1.81,5.77,2.02Zm-26.94-44.5c1.28,1.03,2.45,1.96,3.83,3.06.16-.24.52-.79,1.13-1.7-2.42.48-2.12-.46-1.25-1.8-1.41.17-2.51.3-3.71.44Zm-55.64,13.15c-1.03-.49-1.91-.91-3.05-1.46-.09,1.41-.16,2.44-.24,3.76,1.23-.86,2.13-1.49,3.29-2.3Zm67.64,36.08c.04.26.07.52.11.79,2.19-.3,4.38-.61,6.57-.91-.02-.16-.03-.31-.05-.47-2.26-.37-4.46.01-6.64.59Zm-94-24.1c.41,1.45.81,2.89,1.22,4.34,1.36-2.46,1.04-3.65-1.22-4.34Zm106.26,14.51c.88,2.6,3.29,3.28,5.16,4.63.1-.13.21-.26.31-.39-1.82-1.41-3.65-2.82-5.47-4.24Zm-112.23-11.33c2.27-.73,2.71-2.41,1.5-4.75-.49,1.55-.95,3.01-1.5,4.75Zm65.49-86.92c-3.64-.93-5.46-.47-6.47,1.32,1.95-.4,4.1-.84,6.47-1.32Zm16.75,70.41c-1.72,1.01-3.28,1.93-4.93,2.9,3.25.17,3.56-.02,4.93-2.9Zm6.43,40.11c-.54.91-1.03,1.64-1.41,2.43-.14.29-.01.7,0,1.05.4-.04.9.06,1.19-.14,1.08-.75,1.19-2.08.23-3.34Zm9.7-26.49c.14-.15.29-.29.43-.44-.56-1.04-1.13-2.07-1.86-3.41-.53.8-1.25,1.71-1.17,1.79.78.77,1.71,1.39,2.59,2.06Zm-100.69-8.64c-1.17,2-2.25,3.86-3.32,5.72.17.09.34.19.5.28,1.03-1.88,3.19-3.14,2.82-5.99Zm85.26-2.23c.07.21.13.41.2.62l2.8-.7c-.18-.34-.28-.87-.56-.99-1.18-.5-1.93.07-2.44,1.07Zm10.8,7.38c-.07-2.77-.5-3.26-3.02-3.21,1.07,1.13,1.98,2.1,3.02,3.21Zm-16.93,32.72c1.26.96,2.52,1.92,4.1,3.12-.83-2.23-1.99-3.34-4.1-3.12Zm35.57-8.4l.03.55c2.4-.28,4.79-.55,7.19-.83l-.03-.38c-2.39.22-4.79.44-7.18.66Zm-106.37-30.83c.27.07.55.13.82.2.19-1.4.39-2.8.58-4.2-.2-.03-.39-.07-.59-.1-.27,1.37-.54,2.74-.81,4.1Zm105.31,26.08c.08-.13.16-.25.24-.38-.81-.68-1.6-1.39-2.45-2.02-.24-.17-.67-.07-1.01-.1.11.37.11.93.35,1.08.91.55,1.91.96,2.87,1.42Zm-27.67-24.6c1.42.72,2.85,1.45,4.61,2.34-1.11-2.1-2.77-2.4-4.61-2.34Zm25.17,20.12c-1.67-.8-3.23-1.55-4.9-2.36,1.34,1.9,3.36,2.9,4.9,2.36Zm.38,24.68c.04-.17.07-.33.11-.5-2.01-.43-4.01-.86-6.02-1.29l-.1.45c2,.45,4.01.89,6.01,1.34Zm-14.13-53.04c1.07-.85,2.14-1.69,3.21-2.54-.1-.12-.19-.25-.29-.37-.57,1.48-3.21.34-2.92,2.91Zm18.79,54.59c-.02.12-.05.23-.07.35l6.44,1.34c.03-.15.06-.29.09-.44-2.15-.42-4.31-.84-6.46-1.25Zm-19.12-37.34c.07-.19.14-.38.21-.57l-4.15-1.5c-.06.16-.11.32-.17.47,1.37.53,2.74,1.06,4.11,1.59Zm-8.22-16.68c.11.29.23.58.34.87.58-.11,1.16-.22,1.74-.33-.14-.49-.28-.98-.42-1.47-.55.31-1.1.62-1.65.93Zm24.2,40.11c-.06.2-.11.39-.17.59,1.26.36,2.52.73,3.78,1.09.06-.22.12-.43.18-.65l-3.79-1.04Zm-3.27-6.37c.1-.05.2-.11.3-.16-.71-1.68-1.43-3.36-2.14-5.04-.19.1-.37.19-.56.29.8,1.64,1.6,3.28,2.4,4.92Zm-17.72-27.49c-.11.26-.22.51-.33.77,1.23.48,2.46.96,3.69,1.44.06-.15.12-.3.18-.44-1.18-.59-2.36-1.18-3.54-1.77Zm39.15,30.41l-.15.37c1.73.74,3.45,1.47,5.18,2.21.06-.15.13-.31.19-.46l-5.22-2.12Zm4.57-.92c-.05.19-.1.38-.16.57,1.6.35,3.2.7,4.8,1.05.02-.09.04-.18.06-.27-1.57-.45-3.14-.9-4.71-1.35Zm1.21,5.15c-1.25-.47-2.4-.91-3.51-1.33,1.79,2.02,2.63,2.34,3.51,1.33Zm-125.77-30.14c-.23.12-.45.24-.68.35.46.87.91,1.74,1.37,2.61l.66-.34c-.45-.87-.9-1.75-1.34-2.62Zm63.14-79.15c.15-.22.29-.44.44-.67-.9-.52-1.81-1.05-2.71-1.57-.11.18-.22.36-.33.54.87.57,1.74,1.13,2.6,1.7Zm15.23,107.53c.19.11.38.22.57.33.61-1.11,1.23-2.23,1.84-3.34-.16-.09-.33-.19-.49-.28-.64,1.1-1.28,2.2-1.93,3.3Zm-82.2-33.47c-.25,0-.51,0-.76,0,.06.84.13,1.68.19,2.51.27-.02.54-.03.81-.05-.08-.82-.16-1.65-.24-2.47Zm59.08-71.66c-.87.12-1.52.21-2.38.33.67.64,1.18,1.12,1.94,1.83.19-.92.3-1.46.45-2.16Z"/>
  <path d="m295.19,397.2c.54.31,1.14.56,1.63.94,1.75,1.35,3.51,2.71,5.18,4.16.45.4.6,1.15.88,1.74-.68-.06-1.53.11-2.01-.23-1.76-1.25-3.45-2.62-5.07-4.06-.57-.51-.82-1.36-1.22-2.06.2-.17.41-.33.61-.5Z"/>
  <path d="m326.54,380.85c-.37.23-.93.73-1.06.64-.43-.31-.8-.8-.97-1.3-.06-.17.6-.83.88-.8.55.06,1.07.44,1.6.69l-.45.78Z"/>
  <path d="m322.03,381.95c-.45.17-1.05.62-1.3.47-.5-.29-.86-.88-1.15-1.42-.05-.1.61-.8.74-.75.49.21.9.61,1.34.94.13.25.26.51.38.76Z"/>
  <path d="m315.35,383.46c-.08-.68-.16-1.35-.24-2.03.49,0,.97,0,1.46,0-.11.68-.21,1.36-.32,2.04-.3,0-.6-.01-.9-.02Z"/>
  <path d="m385.51,439.85c2.3-1.95,4.55-3.99,7.77-4.16-2.51,1.54-4.89,3.34-7.77,4.16Z"/>
  <g>
    <path class="cls-2" d="m209.33,402.62c.08-.4.17-.74.23-1.08.04-.21.03-.42.06-.63.09-.69.43-1.25.99-1.65.4-.29,1.22-.18,1.58.17.3.29.6.58.9.88.03.03.07.08.12.08.48.05.6.49.87.77.33.33.41.77.52,1.19.03.11.05.23.1.33.26.46.02.83-.23,1.18-.12.17-.27.13-.34-.06-.02-.06-.04-.13-.05-.19-.09-.87-.5-1.59-1-2.28-.32-.43-.62-.87-1.12-1.09-.31-.13-.64-.22-.97-.32-.1-.03-.2-.07-.31-.09-.05,0-.13,0-.16.04-.12.14-.29.27-.31.43-.13.85-.23,1.71-.33,2.56-.03.28-.05.57-.06.86-.01.58-.32,1.01-.65,1.44-.06.07-.17.14-.26.14-.05,0-.1-.14-.14-.22-.21-.46-.43-.91-.6-1.38-.17-.5-.31-1.01-.42-1.52-.26-1.14-.49-2.29-.73-3.44-.07-.33-.12-.66-.17-.99-.04-.26,0-.5.28-.63.2-.09.34,0,.39.22.08.37.17.74.28,1.11.16.56.32,1.12.49,1.68.07.23.21.45.28.68.08.26.13.54.16.81.04.4.2.72.59,1.01Z"/>
    <path class="cls-2" d="m310.37,383.56c-.09.1-.17.22-.28.3-.68.46-1.34.96-2.06,1.36-.8.44-1.63.8-2.48,1.13-.44.17-.94.27-1.41.09-.5-.19-.91-.46-1.02-1.08-.12-.68-.13-1.33.15-1.98.06-.15.07-.32-.15-.39-.32-.1-.41-.33-.25-.64.1-.2.21-.35.49-.22.22.11.41.03.57-.18.57-.76,1.12-1.54,1.76-2.23.55-.6,1.21-1.14,2-1.42.33-.12.71-.19,1.06-.18.2,0,.41.2.59.35.05.04.02.21-.01.31-.42,1.08-1.18,1.87-2.13,2.5-.46.31-.91.65-1.39.92-.44.25-.91.5-1.39.6-.46.1-.6.38-.71.73-.18.58-.23,1.17.02,1.74.16.35.54.45.87.43.52-.03,1.07-.07,1.55-.27,1.14-.47,2.25-1.02,3.37-1.55.14-.06.25-.19.38-.26.13-.07.27-.11.4-.16.02.04.05.07.07.11Zm-5.96-1.47s.05.04.07.06c.46-.24.92-.5,1.39-.71.94-.42,1.68-1.1,2.42-1.78.13-.12.25-.25.33-.4.06-.11.06-.26.08-.4-.13-.02-.26-.06-.38-.05-.67.07-1.26.36-1.74.83-.59.56-1.15,1.16-1.7,1.76-.19.21-.32.47-.47.71Z"/>
    <path class="cls-2" d="m230.83,396.16c0,.24-.01.43,0,.6.07.56.14,1.12.26,1.68.05.25-.08.38-.18.54-.07.11-.15.22-.23.33-.05-.13-.11-.27-.13-.4-.05-.39-.07-.78-.13-1.17-.05-.32-.16-.64-.22-.9-.32.09-.59.17-.86.23-.06.01-.14-.07-.21-.1.05-.06.1-.13.15-.19.02-.02.05-.02.08-.03.44-.13.45-.13.41-.57-.1-.89-.22-1.77-.31-2.66-.07-.61-.11-1.22-.16-1.84-.03-.35.29-.79.62-.87.04.14.1.29.13.43.05.22.15.25.32.11.08-.07.17-.12.33-.22.14,1.41.08,2.78.15,4.24.57-.93,1.33-1.59,2.01-2.33,1.19-1.28,1.94-1.88,2.37-1.86-.13.23-.19.49-.35.64-.59.56-1.23,1.08-1.82,1.63-.37.35-.7.74-1.04,1.12-.22.25-.44.51-.66.76-.06.07-.1.15-.15.22.57.29,1.12.55,1.65.85.75.44,1.48.93,2.22,1.38.27.16.54.37.88.14.03-.02.15.02.16.05.07.24.15.5-.05.7-.07.07-.25.09-.35.05-.75-.27-1.42-.69-2.09-1.13-.52-.34-1.08-.62-1.63-.92-.23-.13-.47-.26-.71-.37-.12-.06-.25-.09-.44-.15Zm-.84-4.6c.17,1.38-.18,2.83.26,4.11.04-.32.14-.77.15-1.21.02-.78,0-1.55-.02-2.33,0-.08,0-.19-.06-.25-.1-.12-.23-.22-.34-.32Z"/>
    <path class="cls-2" d="m220.99,401.5c.05.38-.1.73-.27,1.05-.46.87-1.16,1.42-2.18,1.55-.46.06-.91.17-1.36.03-.25-.08-.49-.24-.72-.39-.71-.47-1.14-1.18-1.26-1.96-.19-1.21-.21-2.44.27-3.63.23-.57.6-1,1.02-1.42.61-.62,1.39-.73,2.17-.84.35-.05.73-.03,1.08.04.58.13.76.41.7,1-.07.62-.23,1.21-.59,1.75-.35.53-.91.81-1.37,1.21-.29.24-.59.47-.9.69-.24.17-.5.32-.77.45-.21.1-.28.02-.24-.21.05-.25.18-.42.4-.57.72-.47,1.45-.93,2.14-1.45.29-.22.54-.53.7-.85.28-.55-.05-1.1-.66-1.18-.58-.08-1.16-.1-1.73.11-1.01.37-1.54,1.1-1.72,2.15-.17,1,.04,1.95.36,2.88.19.57.66.95,1.17,1.27.79.5,1.6.27,2.4.08.18-.04.35-.26.48-.44.2-.28.35-.59.52-.88.09-.16.18-.31.28-.47.03.01.06.03.09.04Z"/>
    <path class="cls-2" d="m286.5,384.58c.13.86.09,1.69-.17,2.53-.18.58-.41,1.13-.88,1.52-.58.48-1.61.69-2.25.04-.13-.13-.25-.15-.41-.1-1.12.39-1.47-.52-1.33-1.31.2-1.11.71-2.09,1.45-2.93.47-.54,1.07-.96,1.75-1.23.64-.25,1.54.11,1.75,1.06.03.14.06.28.09.42Zm-2.81,3.78s.02.07.03.1c.08,0,.16.01.24,0,.35-.05.68-.1,1.01-.27.37-.2.65-.47.79-.83.25-.61.46-1.25.38-1.93-.03-.28-.09-.57-.17-.84-.07-.24-.15-.51-.3-.7-.13-.16-.38-.31-.58-.31-.35,0-.68.12-.99.33-.64.43-1.1,1.01-1.53,1.62-.4.55-.61,1.17-.63,1.85-.01.48.2.63.66.51.41-.1.82-.2,1.22-.34.34-.12.66-.3.99-.43.1-.04.23.02.34.03-.05.12-.07.29-.16.36-.34.25-.71.46-1.06.69-.08.05-.16.11-.24.16Z"/>
    <path class="cls-2" d="m204.63,399.01c-.1.14-.17.32-.3.43-.55.5-1.14.97-1.68,1.49-.79.75-1.44,1.56-1.58,2.72-.11.92-.08,1.81.14,2.69.19.77.52,1.52,1.19,2.02.37.28.83.46,1.31.43.79-.05,1.61-.06,2.32-.47.31-.18.58-.43.85-.66.16-.14.3-.31.45-.46.02.01.05.03.07.04,0,.06,0,.13-.02.17-.46.67-.89,1.37-1.76,1.6-.38.1-.74.28-1.12.38-.54.14-1.09.15-1.64,0,0,0-.02,0-.03,0-.8.11-1.13-.47-1.49-1.01-.59-.86-.83-1.84-.85-2.85-.02-1.04.01-2.1.55-3.05.45-.79.96-1.52,1.7-2.07.47-.35.89-.76,1.33-1.14.15-.12.32-.22.48-.32.03.03.05.05.08.08Z"/>
    <path class="cls-2" d="m297.18,382.11c-.05-.5.07-.67.44-.81.36-.13.72-.27,1.07-.43.08-.04.17-.16.17-.25.07-.97.14-1.93.17-2.9.01-.28-.07-.56-.11-.84-.02-.13-.12-.27.1-.35.21-.08.26.04.33.19.23.46.17.95.17,1.44,0,.7-.02,1.4-.03,2.1,0,.05.01.09.02.13,1.36-.48,2.65-1.1,4.09-1.24.01.03.03.06.04.08-.04.04-.07.11-.12.13-.6.26-1.19.53-1.79.78-.57.24-1.13.48-1.71.68-.59.2-.62.18-.6.8.02.91.07,1.82.11,2.73.02.45.05.9.08,1.35,0,.03,0,.06,0,.09-.07.12-.14.23-.21.34-.08-.1-.21-.18-.24-.29-.09-.38-.15-.77-.2-1.16-.06-.48-.11-.95-.14-1.43-.02-.36,0-.73-.01-1.09,0-.18,0-.36,0-.61-.56.2-1.09.38-1.63.57Z"/>
    <path class="cls-2" d="m277.27,388.26c-.01-.21-.04-.41-.04-.62,0-.54-.02-1.09.03-1.63.07-.72.17-1.45.3-2.16.06-.33.23-.64.37-.96.22-.52.69-.59,1.13-.51.74.13,1.5.29,2.14.72.13.09.31.3.28.36-.1.2-.3.1-.45.03-.59-.29-1.22-.47-1.87-.53-.66-.07-.99-.03-1.14.71-.09.48-.13.97-.21,1.45-.22,1.4-.07,2.79.05,4.18.03.39.02.79,0,1.18,0,.1-.13.2-.19.3-.09-.07-.22-.11-.26-.2-.15-.36-.27-.73-.41-1.1-.19-.5-.41-.99-.58-1.49-.31-.91-.59-1.83-.87-2.75-.02-.06-.04-.14-.02-.2.04-.1.1-.2.19-.25.04-.02.17.08.23.15.4.48.37,1.09.55,1.65.1.3.21.59.31.89.07.21.13.42.21.62.03.08.1.14.15.2.03-.01.07-.03.1-.04Z"/>
    <path class="cls-2" d="m226.69,393.84c-.13.02-.26.05-.39.07-.52.12-1.06.2-1.57.36-.78.25-1.19.83-1.3,1.63-.1.73-.04,1.43.28,2.11.39.81.97,1.44,1.85,1.7.38.11.79.03,1.11-.24.07-.06.06-.19.12-.27.06-.08.15-.14.23-.21.05.07.13.14.14.22.06.37-.08.64-.43.78-.46.18-.93.34-1.41.48-.27.08-.51,0-.76-.16-.67-.39-1.11-1.01-1.44-1.65-.27-.51-.32-1.17-.34-1.76-.04-1.05.26-2.01,1.06-2.76.33-.31.7-.59,1.17-.63.46-.04.93-.04,1.4-.02.11,0,.22.14.34.22-.02.04-.04.08-.05.12Z"/>
    <path class="cls-2" d="m262.27,390.48c.14-.89.25-1.76.44-2.61.06-.3.3-.57.48-.83.05-.08.19-.12.3-.14.9-.14,1.77.08,2.64.27.3.06.5.34.66.6-.01.03-.02.05-.04.08-.15-.03-.31-.06-.46-.08-.8-.08-1.6-.19-2.4-.23-.57-.03-.73.17-.84.72-.2.98-.2,1.96-.14,2.94.05.82.14,1.64.22,2.46,0,.06.03.13,0,.17-.07.13-.15.33-.26.36-.21.06-.21-.17-.24-.31-.3-1.19-.62-2.38-.9-3.57-.13-.57-.2-1.15-.31-1.73-.03-.17.02-.27.21-.3.19-.03.27.08.3.23.04.24.06.47.11.71.07.42.15.83.23,1.26Z"/>
    <path class="cls-2" d="m293.26,381.16c-.01-.06-.02-.11-.04-.17-.05-.22,0-.39.25-.43.25-.04.31.16.32.32.05.63.14,1.26,0,1.91-.21,1-.37,2.02-.77,2.96-.3.71-.63,1.43-1.05,2.07-.21.31-.65.48-1.01.67-.09.05-.3-.02-.39-.1-.28-.27-.53-.57-.79-.86-.01-.01-.03-.03-.03-.05-.06-.63-.47-1.17-.51-1.82-.03-.67-.12-1.34-.16-2,0-.19.06-.4.14-.57.1-.24.33-.24.54-.18.07.02.13.11.15.18.01.05-.06.15-.11.16-.36.08-.33.37-.33.61,0,.86.18,1.69.53,2.48.14.31.25.62.39.92.35.74.81.65,1.23.16.46-.54.75-1.19.96-1.86.24-.79.5-1.58.64-2.39.12-.66.08-1.35.11-2.02-.03,0-.05,0-.08,0Z"/>
    <path class="cls-2" d="m254.21,391.97c.13.88.16,1.7-.21,2.46-.13.28-.32.56-.55.75-.45.38-1.22.16-1.53-.33-.16-.25-.37-.48-.61-.66-.48-.38-.63-.89-.64-1.45,0-.49.01-.98.08-1.46.08-.59.38-1.09.93-1.34.46-.2.94-.14,1.4.13.76.44,1.11,1.11,1.12,1.9Zm-1.29,1.67c.03.23-.13.42-.31.59-.12.12-.25.22-.38.33.18.04.36.08.55.11.38.05.76-.18.9-.53.33-.77.26-1.56.09-2.34-.13-.6-.54-1-1.06-1.33-.29-.18-.55-.08-.83-.07-.28.01-.45.17-.56.42-.23.56-.31,1.14-.28,1.74.03.7.42,1.17,1.11,1.22.25.02.51-.09.77-.15Z"/>
    <path class="cls-2" d="m245.33,391.95c-.09.24-.08.42.17.57.14.08.21.27.33.39.33.33.63.72,1.02.96.39.23.87.3,1.35.46.17-.67.34-1.25.47-1.85.1-.43.15-.88.22-1.32.02-.11.07-.23.04-.33-.14-.39-.07-.49.38-.53.1.39.03.76-.07,1.14-.22.84-.4,1.69-.59,2.54-.11.5-.21,1.01-.33,1.51-.19.81-.39,1.62-.6,2.42-.03.14-.11.27-.18.39-.03.04-.12.09-.16.07-.04-.01-.1-.1-.09-.15.02-.21.04-.42.1-.62.17-.6.35-1.19.53-1.78.06-.21.1-.43.15-.64.04-.16,0-.26-.19-.26-.97.02-1.57-.6-2.18-1.22-.25-.26-.49-.53-.73-.81-.18-.21-.35-.44-.23-.75.12-.33.21-.37.59-.19Z"/>
    <path class="cls-2" d="m259.32,388.58c-.02.43-.03.86-.06,1.29-.07.81-.12,1.62-.27,2.42-.17.98-.51,1.91-1.21,2.66-.28.3-.78.28-1.08-.04-.15-.16-.29-.34-.38-.54-.38-.85-.64-1.75-.74-2.68-.04-.31-.08-.63-.06-.94.01-.27.1-.54.18-.8.01-.04.23-.07.24-.05.06.11.14.28.1.35-.24.4-.11.84-.09,1.24.03.52.17,1.04.34,1.54.14.42.33.84.58,1.21.28.42.67.38.97-.03.48-.63.62-1.37.76-2.12.1-.55.21-1.1.23-1.65.02-.65-.06-1.3-.08-1.95,0-.1.04-.23.1-.31.06-.07.19-.11.27-.1.05,0,.1.14.13.22.03.08.03.17.04.26.01,0,.03,0,.04,0Z"/>
  </g>
  <g>
    <path class="cls-1" d="m354.65,314.79c-.98.23-1.92.44-2.86.66-.8.19-1.59.4-2.39.55-.52.1-1.06.09-1.58.18-.36.06-.72.17-1.06.31-.09.04-.15.23-.17.36-.13.93-.25,1.86-.38,2.79-.21,1.44-.41,2.88-.64,4.32-.12.75-.3,1.5-.43,2.25-.16.94-.27,1.88-.43,2.82-.21,1.23-.45,2.45-.66,3.68-.09.53-.16,1.08-.19,1.62-.06,1.18-.26,2.35-.06,3.53.03.17-.1.37-.15.55-.19-.17-.51-.32-.54-.51-.09-.66-.13-1.33-.1-2,.04-1.06.1-2.12.25-3.17.16-1.17.43-2.32.63-3.49.13-.75.22-1.51.34-2.27.18-1.07.39-2.13.55-3.2.11-.71.17-1.44.27-2.15.11-.73.26-1.46.37-2.19.13-.82.23-1.64.35-2.46.06-.39-.19-.35-.44-.33-.91.06-1.82.13-2.73.17-1.46.06-2.91.12-4.37.16-.74.02-1.49-.05-2.22.04-.84.1-1.66.33-2.49.51-.46.1-.91.2-1.37.32-1.03.26-2.05.52-3.08.79-.48.13-1.15-.2-1.28-.67-.02-.07-.02-.16,0-.22.66-1.58,1.33-3.15,2-4.73.46-1.07.92-2.13,1.41-3.18.41-.88.88-1.74,1.31-2.61.11-.22.17-.46.28-.68.36-.72.75-1.42,1.11-2.14.56-1.13,1.15-2.24,1.44-3.48.04-.18.15-.34.24-.5.15-.27.35-.28.47,0,.08.19.12.47.04.66-.52,1.29-1.06,2.58-1.64,3.85-.67,1.47-1.43,2.9-2.1,4.37-.62,1.37-1.17,2.78-1.76,4.16-.27.62-.58,1.23-.84,1.86-.26.64-.47,1.3-.7,1.95-.07.19.02.3.21.29.17,0,.35-.02.51-.06,1.17-.29,2.35-.58,3.52-.87,2.56-.64,5.18-.53,7.78-.6,1.42-.04,2.84-.14,4.25-.23.59-.04.57-.06.65-.66.23-1.82.49-3.64.71-5.47.15-1.23.25-2.46.35-3.69.09-1.16.14-2.32.19-3.48.03-.75.1-1.51,0-2.25-.12-.92-.39-1.83-.6-2.74,0-.01-.01-.02-.01-.03-.01-.2-.25-.43.02-.59.18-.11.62.19.68.45.11.46.2.92.29,1.38.45,2.2.42,4.42.26,6.64-.05.65-.03,1.31-.11,1.96-.16,1.44-.36,2.87-.54,4.3-.08.59-.16,1.17-.24,1.76-.08.59-.15,1.17-.23,1.76-.04.29.09.39.36.34.68-.13,1.36-.24,2.04-.38,1.38-.29,2.75-.61,4.13-.87.31-.06.66,0,.99.07.26.05.37.25.34.48Z"/>
    <path class="cls-1" d="m355.51,323.54c.13-1.41.19-2.78.39-4.13.12-.83.46-1.63.69-2.45.11-.39.15-.81.3-1.18.28-.7.6-1.38.92-2.07.34-.73.67-1.46,1.07-2.16.6-1.03,1.24-2.04,1.89-3.05.34-.53.68-1.07,1.1-1.53.77-.83,1.49-1.73,2.54-2.24.73-.35,1.48-.64,2.27-.86,1.76-.49,3.53-.56,5.34-.49.82.03,1.53.36,2.3.49.35.06.68.28,1,.46.91.5,1.81,1.01,2.45,1.86.52.69,1.03,1.38,1.49,2.11.99,1.57,1.7,3.27,2.25,5.03.32,1.01.62,2.03.86,3.05.23.97.37,1.96.55,2.93.02.12.06.24.08.36.08.52.19,1.04.21,1.56.03.66.04,1.33-.04,1.99-.08.65-.22,1.31-.42,1.93-.2.63-.42,1.28-.78,1.82-.43.64-.97,1.21-1.54,1.74-.44.41-.96.78-1.5,1.06-.71.37-1.47.64-2.21.94-.73.29-1.46.58-2.21.85-1.23.44-2.47.86-3.71,1.28-.71.24-1.42.49-2.14.69-.45.12-.92.17-1.38.24-.05,0-.1-.01-.15,0-.6.24-1.23.15-1.84.22-.99.11-1.94.03-2.87-.29-.56-.19-1.1-.43-1.64-.66-1.35-.57-2.3-1.59-3.17-2.72-.3-.39-.56-.81-.84-1.22-.52-.76-.77-1.62-.9-2.53-.14-1.03-.26-2.05-.38-3.05Zm17.73,7.61s.06.06.09.09c.14-.04.29-.06.42-.11,1.35-.5,2.72-.97,4.05-1.54.74-.32,1.47-.74,2.09-1.25,1.08-.88,1.76-2.06,2.15-3.39.26-.88.5-1.78.49-2.72-.02-2.36-.55-4.63-1.03-6.92-.05-.22-.09-.44-.16-.64-.34-.96-.69-1.91-1.02-2.86-.57-1.61-1.28-3.15-2.31-4.54-1.23-1.65-2.82-2.75-4.84-3.09-1.08-.18-2.21-.11-3.32-.12-1.61-.01-3.13.42-4.57,1.11-.49.23-.99.48-1.39.83-.8.7-1.56,1.44-2.14,2.35-.58.92-1.28,1.76-1.8,2.71-.86,1.57-1.67,3.17-2.3,4.85-.52,1.4-.91,2.82-1.11,4.28-.27,1.95-.32,3.91-.03,5.87.17,1.13.53,2.17,1.09,3.17,1.16,2.06,2.92,3.3,5.17,3.9,1.09.29,2.2.24,3.32.24.19,0,.38-.03.52-.04-.51-.23-1.05-.44-1.54-.72-.38-.22-.79-.44-.96-.91-.11-.3-.26-.58-.36-.88-.09-.29-.01-.56.21-.86.07.29.11.49.18.69.24.7.63,1.27,1.3,1.63,1.05.56,2.14.61,3.28.33.66-.16,1.32-.32,1.98-.47.87-.2,1.64-.54,2.21-1.26.31-.4.61-.81.93-1.2.12-.15.29-.27.44-.4.04.04.08.07.11.11-.32.63-.45,1.36-1.16,1.76Z"/>
    <path class="cls-1" d="m406.76,319.64c-.2.05-.39.09-.57.16-1.08.37-2.17.75-3.25,1.12-.44.15-.88.33-1.32.48-.68.22-1.36.44-2.05.62-1.16.31-2.33.63-3.51.89-.8.17-1.63.23-2.45.35-.56.09-1.11.2-1.67.3-.45.08-.84.02-1.05-.45-.19-.42-.09-.86.2-1.27.27-.37.46-.8.68-1.2.04-.06.07-.13.11-.19.4-.57.82-1.11,1.18-1.7.51-.81,1.06-1.62,1.44-2.49.42-.96,1.12-1.7,1.71-2.53.28-.39.49-.83.74-1.24.44-.73.87-1.46,1.34-2.17.32-.49.7-.94,1.04-1.42.15-.22.32-.45.4-.7.15-.47.43-.82.8-1.12.08-.07.1-.21.16-.31.08-.14.16-.33.28-.38.11-.04.36.04.41.14.07.14.08.37,0,.51-.29.52-.61,1.02-.93,1.52-.71,1.09-1.43,2.16-2.13,3.26-.77,1.21-1.5,2.44-2.27,3.65-.84,1.34-1.72,2.65-2.56,3.99-.39.63-.75,1.28-1.12,1.92-.19.33-.38.66-.55,1-.04.09.03.24.05.36.08-.04.16-.08.24-.11.07-.03.14-.05.21-.07.73-.12,1.47-.21,2.19-.36,1.17-.24,2.35-.48,3.51-.77.84-.21,1.64-.58,2.48-.74,1.61-.31,3.07-1.05,4.63-1.51.56-.16,1.11-.37,1.64-.62.15-.07.26-.35.29-.54.09-.48.14-.97.17-1.46.09-1.56.24-3.13.22-4.7,0-.74-.35-1.48-.52-2.22-.04-.17-.09-.41,0-.52.13-.16.49,0,.63.25.46.85.69,1.77.76,2.73.09,1.27-.03,2.52-.2,3.77-.1.74-.16,1.49-.25,2.32.31-.08.55-.14.8-.2.45-.11.91-.24,1.36-.32.42-.08.85-.15,1.28-.18.21-.01.45.05.64.14.34.17.36.34.17.63-.22-.03-.41-.1-.59-.08-.48.07-.95.18-1.42.29-.6.15-1.19.31-1.79.47-.56.15-.64.26-.69.84-.12,1.24-.28,2.48-.39,3.72-.11,1.19-.18,2.39-.26,3.59-.11,1.73-.22,3.45-.31,5.18-.03.6,0,1.21-.03,1.82,0,.16-.13.42-.25.45-.25.07-.48-.1-.5-.37-.03-.55-.06-1.11,0-1.66.04-.36-.12-.75.16-1.11.09-.12-.07-.42-.06-.63.05-1.08.1-2.17.18-3.25.1-1.43.23-2.86.34-4.29.09-1.13.18-2.27.26-3.4,0-.05-.02-.09-.04-.19Z"/>
  </g>
</svg>